<mxfile host="app.diagrams.net" agent="Mozilla/5.0 (Windows NT 10.0; Win64; x64) AppleWebKit/537.36 (KHTML, like Gecko) Chrome/130.0.0.0 Safari/537.36" version="24.7.16">
  <diagram name="Page-1" id="hRwqpXXTSRK71GjZ7WKt">
    <mxGraphModel dx="1434" dy="746" grid="1" gridSize="10" guides="1" tooltips="1" connect="1" arrows="1" fold="1" page="1" pageScale="1" pageWidth="827" pageHeight="1169" math="0" shadow="0">
      <root>
        <mxCell id="0" />
        <mxCell id="1" parent="0" />
        <mxCell id="Aedh_avpRdLWxv290vEX-3" style="edgeStyle=orthogonalEdgeStyle;rounded=0;orthogonalLoop=1;jettySize=auto;html=1;exitX=0.5;exitY=1;exitDx=0;exitDy=0;entryX=0.5;entryY=0;entryDx=0;entryDy=0;" parent="1" source="Aedh_avpRdLWxv290vEX-1" target="Aedh_avpRdLWxv290vEX-2" edge="1">
          <mxGeometry relative="1" as="geometry" />
        </mxCell>
        <mxCell id="Aedh_avpRdLWxv290vEX-1" value="BillCalc" style="ellipse;whiteSpace=wrap;html=1;" parent="1" vertex="1">
          <mxGeometry x="350" y="40" width="120" height="80" as="geometry" />
        </mxCell>
        <mxCell id="cdzJo2VHzPH039wVBR6J-13" style="edgeStyle=orthogonalEdgeStyle;rounded=0;orthogonalLoop=1;jettySize=auto;html=1;exitX=0.5;exitY=1;exitDx=0;exitDy=0;entryX=0.5;entryY=0;entryDx=0;entryDy=0;" edge="1" parent="1" source="Aedh_avpRdLWxv290vEX-2" target="cdzJo2VHzPH039wVBR6J-14">
          <mxGeometry relative="1" as="geometry">
            <mxPoint x="410" y="280" as="targetPoint" />
          </mxGeometry>
        </mxCell>
        <mxCell id="Aedh_avpRdLWxv290vEX-2" value="calculate room cost&amp;nbsp;" style="rounded=0;whiteSpace=wrap;html=1;" parent="1" vertex="1">
          <mxGeometry x="350" y="170" width="120" height="60" as="geometry" />
        </mxCell>
        <mxCell id="cdzJo2VHzPH039wVBR6J-21" style="edgeStyle=orthogonalEdgeStyle;rounded=0;orthogonalLoop=1;jettySize=auto;html=1;exitX=0.5;exitY=1;exitDx=0;exitDy=0;" edge="1" parent="1" source="Aedh_avpRdLWxv290vEX-4" target="cdzJo2VHzPH039wVBR6J-6">
          <mxGeometry relative="1" as="geometry" />
        </mxCell>
        <mxCell id="Aedh_avpRdLWxv290vEX-4" value="FullBoardCost = ChildBoard + AdultBoard" style="rounded=0;whiteSpace=wrap;html=1;" parent="1" vertex="1">
          <mxGeometry x="350" y="1030" width="120" height="60" as="geometry" />
        </mxCell>
        <mxCell id="Aedh_avpRdLWxv290vEX-13" style="edgeStyle=orthogonalEdgeStyle;rounded=0;orthogonalLoop=1;jettySize=auto;html=1;exitX=0.5;exitY=1;exitDx=0;exitDy=0;entryX=0.5;entryY=0;entryDx=0;entryDy=0;" parent="1" target="Aedh_avpRdLWxv290vEX-10" edge="1">
          <mxGeometry relative="1" as="geometry">
            <mxPoint x="410" y="460" as="sourcePoint" />
          </mxGeometry>
        </mxCell>
        <mxCell id="Aedh_avpRdLWxv290vEX-11" style="edgeStyle=orthogonalEdgeStyle;rounded=0;orthogonalLoop=1;jettySize=auto;html=1;exitX=1;exitY=0.5;exitDx=0;exitDy=0;entryX=0.5;entryY=0;entryDx=0;entryDy=0;" parent="1" source="Aedh_avpRdLWxv290vEX-10" target="Aedh_avpRdLWxv290vEX-12" edge="1">
          <mxGeometry relative="1" as="geometry">
            <mxPoint x="680" y="550" as="targetPoint" />
          </mxGeometry>
        </mxCell>
        <mxCell id="Aedh_avpRdLWxv290vEX-16" style="edgeStyle=orthogonalEdgeStyle;rounded=0;orthogonalLoop=1;jettySize=auto;html=1;exitX=0.5;exitY=1;exitDx=0;exitDy=0;entryX=0.5;entryY=0;entryDx=0;entryDy=0;" parent="1" source="Aedh_avpRdLWxv290vEX-10" target="Aedh_avpRdLWxv290vEX-18" edge="1">
          <mxGeometry relative="1" as="geometry">
            <mxPoint x="410" y="660" as="targetPoint" />
          </mxGeometry>
        </mxCell>
        <mxCell id="Aedh_avpRdLWxv290vEX-10" value="if age is more than 65" style="rhombus;whiteSpace=wrap;html=1;" parent="1" vertex="1">
          <mxGeometry x="340" y="480" width="140" height="140" as="geometry" />
        </mxCell>
        <mxCell id="cdzJo2VHzPH039wVBR6J-8" style="edgeStyle=orthogonalEdgeStyle;rounded=0;orthogonalLoop=1;jettySize=auto;html=1;exitX=0.5;exitY=1;exitDx=0;exitDy=0;" edge="1" parent="1" source="Aedh_avpRdLWxv290vEX-12" target="cdzJo2VHzPH039wVBR6J-7">
          <mxGeometry relative="1" as="geometry" />
        </mxCell>
        <mxCell id="Aedh_avpRdLWxv290vEX-12" value="give 10% discount on room price" style="rounded=0;whiteSpace=wrap;html=1;" parent="1" vertex="1">
          <mxGeometry x="590" y="570" width="120" height="60" as="geometry" />
        </mxCell>
        <mxCell id="Aedh_avpRdLWxv290vEX-14" value="yes" style="text;html=1;align=center;verticalAlign=middle;whiteSpace=wrap;rounded=0;" parent="1" vertex="1">
          <mxGeometry x="530" y="520" width="60" height="30" as="geometry" />
        </mxCell>
        <mxCell id="Aedh_avpRdLWxv290vEX-19" style="edgeStyle=orthogonalEdgeStyle;rounded=0;orthogonalLoop=1;jettySize=auto;html=1;exitX=0.5;exitY=1;exitDx=0;exitDy=0;entryX=0.5;entryY=0;entryDx=0;entryDy=0;" parent="1" target="Aedh_avpRdLWxv290vEX-18" edge="1">
          <mxGeometry relative="1" as="geometry">
            <mxPoint x="410" y="720" as="sourcePoint" />
            <Array as="points">
              <mxPoint x="411" y="720" />
              <mxPoint x="411" y="760" />
              <mxPoint x="410" y="760" />
            </Array>
          </mxGeometry>
        </mxCell>
        <mxCell id="Aedh_avpRdLWxv290vEX-17" value="NO" style="text;html=1;align=center;verticalAlign=middle;whiteSpace=wrap;rounded=0;" parent="1" vertex="1">
          <mxGeometry x="354" y="620" width="60" height="30" as="geometry" />
        </mxCell>
        <mxCell id="Aedh_avpRdLWxv290vEX-23" style="edgeStyle=orthogonalEdgeStyle;rounded=0;orthogonalLoop=1;jettySize=auto;html=1;exitX=1;exitY=0.5;exitDx=0;exitDy=0;" parent="1" source="Aedh_avpRdLWxv290vEX-18" target="Aedh_avpRdLWxv290vEX-22" edge="1">
          <mxGeometry relative="1" as="geometry" />
        </mxCell>
        <mxCell id="Aedh_avpRdLWxv290vEX-25" style="edgeStyle=orthogonalEdgeStyle;rounded=0;orthogonalLoop=1;jettySize=auto;html=1;exitX=0.5;exitY=1;exitDx=0;exitDy=0;" parent="1" source="Aedh_avpRdLWxv290vEX-18" edge="1">
          <mxGeometry relative="1" as="geometry">
            <mxPoint x="410" y="1020" as="targetPoint" />
            <Array as="points" />
          </mxGeometry>
        </mxCell>
        <mxCell id="Aedh_avpRdLWxv290vEX-18" value="If age is less than 16&amp;nbsp;" style="rhombus;whiteSpace=wrap;html=1;" parent="1" vertex="1">
          <mxGeometry x="343" y="800" width="134" height="140" as="geometry" />
        </mxCell>
        <mxCell id="Aedh_avpRdLWxv290vEX-21" value="Children price and adult are seperate" style="text;html=1;align=center;verticalAlign=middle;whiteSpace=wrap;rounded=0;" parent="1" vertex="1">
          <mxGeometry x="130" y="70" width="60" height="30" as="geometry" />
        </mxCell>
        <mxCell id="cdzJo2VHzPH039wVBR6J-11" style="edgeStyle=orthogonalEdgeStyle;rounded=0;orthogonalLoop=1;jettySize=auto;html=1;exitX=0.5;exitY=1;exitDx=0;exitDy=0;entryX=0.5;entryY=0;entryDx=0;entryDy=0;" edge="1" parent="1" source="Aedh_avpRdLWxv290vEX-22" target="cdzJo2VHzPH039wVBR6J-10">
          <mxGeometry relative="1" as="geometry" />
        </mxCell>
        <mxCell id="Aedh_avpRdLWxv290vEX-22" value="give 50% discount on the food to the children only" style="rounded=0;whiteSpace=wrap;html=1;" parent="1" vertex="1">
          <mxGeometry x="610" y="840" width="120" height="60" as="geometry" />
        </mxCell>
        <mxCell id="cdzJo2VHzPH039wVBR6J-1" value="YES" style="text;html=1;align=center;verticalAlign=middle;whiteSpace=wrap;rounded=0;" vertex="1" parent="1">
          <mxGeometry x="510" y="840" width="60" height="30" as="geometry" />
        </mxCell>
        <mxCell id="cdzJo2VHzPH039wVBR6J-2" value="NO" style="text;html=1;align=center;verticalAlign=middle;whiteSpace=wrap;rounded=0;" vertex="1" parent="1">
          <mxGeometry x="340" y="930" width="60" height="30" as="geometry" />
        </mxCell>
        <mxCell id="cdzJo2VHzPH039wVBR6J-25" style="edgeStyle=orthogonalEdgeStyle;rounded=0;orthogonalLoop=1;jettySize=auto;html=1;exitX=0.5;exitY=1;exitDx=0;exitDy=0;" edge="1" parent="1" source="cdzJo2VHzPH039wVBR6J-6" target="cdzJo2VHzPH039wVBR6J-23">
          <mxGeometry relative="1" as="geometry" />
        </mxCell>
        <mxCell id="cdzJo2VHzPH039wVBR6J-6" value="output BookingID&lt;div&gt;MainGuestName&lt;/div&gt;&lt;div&gt;RoomCost&lt;/div&gt;&lt;div&gt;FullBoardCost&lt;/div&gt;&lt;div&gt;&lt;br&gt;&lt;/div&gt;" style="shape=parallelogram;perimeter=parallelogramPerimeter;whiteSpace=wrap;html=1;fixedSize=1;" vertex="1" parent="1">
          <mxGeometry x="328.5" y="1120" width="163" height="90" as="geometry" />
        </mxCell>
        <mxCell id="cdzJo2VHzPH039wVBR6J-9" style="edgeStyle=orthogonalEdgeStyle;rounded=0;orthogonalLoop=1;jettySize=auto;html=1;exitX=0.5;exitY=1;exitDx=0;exitDy=0;entryX=0.5;entryY=0;entryDx=0;entryDy=0;" edge="1" parent="1" source="cdzJo2VHzPH039wVBR6J-7" target="Aedh_avpRdLWxv290vEX-18">
          <mxGeometry relative="1" as="geometry" />
        </mxCell>
        <mxCell id="cdzJo2VHzPH039wVBR6J-7" value="RoomCost = RoomCost * 0.9" style="rounded=0;whiteSpace=wrap;html=1;" vertex="1" parent="1">
          <mxGeometry x="590" y="680" width="120" height="60" as="geometry" />
        </mxCell>
        <mxCell id="cdzJo2VHzPH039wVBR6J-12" style="edgeStyle=orthogonalEdgeStyle;rounded=0;orthogonalLoop=1;jettySize=auto;html=1;exitX=0.5;exitY=1;exitDx=0;exitDy=0;entryX=0.5;entryY=0;entryDx=0;entryDy=0;" edge="1" parent="1" source="cdzJo2VHzPH039wVBR6J-10" target="Aedh_avpRdLWxv290vEX-4">
          <mxGeometry relative="1" as="geometry">
            <Array as="points">
              <mxPoint x="670" y="1010" />
              <mxPoint x="410" y="1010" />
            </Array>
          </mxGeometry>
        </mxCell>
        <mxCell id="cdzJo2VHzPH039wVBR6J-10" value="ChildBoard = ChildBoard / 2" style="rounded=0;whiteSpace=wrap;html=1;" vertex="1" parent="1">
          <mxGeometry x="610" y="930" width="120" height="60" as="geometry" />
        </mxCell>
        <mxCell id="cdzJo2VHzPH039wVBR6J-15" style="edgeStyle=orthogonalEdgeStyle;rounded=0;orthogonalLoop=1;jettySize=auto;html=1;exitX=0.5;exitY=1;exitDx=0;exitDy=0;entryX=0.5;entryY=0;entryDx=0;entryDy=0;" edge="1" parent="1" source="cdzJo2VHzPH039wVBR6J-14" target="Aedh_avpRdLWxv290vEX-10">
          <mxGeometry relative="1" as="geometry" />
        </mxCell>
        <mxCell id="cdzJo2VHzPH039wVBR6J-17" style="edgeStyle=orthogonalEdgeStyle;rounded=0;orthogonalLoop=1;jettySize=auto;html=1;exitX=1;exitY=0.5;exitDx=0;exitDy=0;entryX=0;entryY=0.5;entryDx=0;entryDy=0;" edge="1" parent="1" source="cdzJo2VHzPH039wVBR6J-14" target="cdzJo2VHzPH039wVBR6J-16">
          <mxGeometry relative="1" as="geometry" />
        </mxCell>
        <mxCell id="cdzJo2VHzPH039wVBR6J-14" value="&amp;nbsp;if newspaper is true" style="rhombus;whiteSpace=wrap;html=1;" vertex="1" parent="1">
          <mxGeometry x="335" y="280" width="150" height="160" as="geometry" />
        </mxCell>
        <mxCell id="cdzJo2VHzPH039wVBR6J-20" style="edgeStyle=orthogonalEdgeStyle;rounded=0;orthogonalLoop=1;jettySize=auto;html=1;exitX=0.5;exitY=1;exitDx=0;exitDy=0;entryX=0.5;entryY=0;entryDx=0;entryDy=0;" edge="1" parent="1" source="cdzJo2VHzPH039wVBR6J-16" target="Aedh_avpRdLWxv290vEX-10">
          <mxGeometry relative="1" as="geometry">
            <Array as="points">
              <mxPoint x="650" y="460" />
              <mxPoint x="410" y="460" />
            </Array>
          </mxGeometry>
        </mxCell>
        <mxCell id="cdzJo2VHzPH039wVBR6J-16" value="RoomCost = RoomCost + 5.5" style="rounded=0;whiteSpace=wrap;html=1;" vertex="1" parent="1">
          <mxGeometry x="590" y="330" width="120" height="60" as="geometry" />
        </mxCell>
        <mxCell id="cdzJo2VHzPH039wVBR6J-18" value="YES" style="text;html=1;align=center;verticalAlign=middle;whiteSpace=wrap;rounded=0;" vertex="1" parent="1">
          <mxGeometry x="510" y="320" width="60" height="30" as="geometry" />
        </mxCell>
        <mxCell id="cdzJo2VHzPH039wVBR6J-19" value="NO" style="text;html=1;align=center;verticalAlign=middle;whiteSpace=wrap;rounded=0;" vertex="1" parent="1">
          <mxGeometry x="350" y="440" width="60" height="30" as="geometry" />
        </mxCell>
        <mxCell id="cdzJo2VHzPH039wVBR6J-26" style="edgeStyle=orthogonalEdgeStyle;rounded=0;orthogonalLoop=1;jettySize=auto;html=1;exitX=0.5;exitY=1;exitDx=0;exitDy=0;" edge="1" parent="1" source="cdzJo2VHzPH039wVBR6J-23" target="cdzJo2VHzPH039wVBR6J-24">
          <mxGeometry relative="1" as="geometry" />
        </mxCell>
        <mxCell id="cdzJo2VHzPH039wVBR6J-23" value="TotalCost =&lt;span style=&quot;background-color: initial;&quot;&gt;RoomCost&lt;/span&gt;&lt;div&gt;&amp;nbsp;+ FullBoardCost&lt;/div&gt;" style="rounded=0;whiteSpace=wrap;html=1;" vertex="1" parent="1">
          <mxGeometry x="350" y="1240" width="120" height="60" as="geometry" />
        </mxCell>
        <mxCell id="cdzJo2VHzPH039wVBR6J-24" value="output TotalCost" style="shape=parallelogram;perimeter=parallelogramPerimeter;whiteSpace=wrap;html=1;fixedSize=1;" vertex="1" parent="1">
          <mxGeometry x="350" y="1340" width="120" height="60" as="geometry" />
        </mxCell>
        <mxCell id="cdzJo2VHzPH039wVBR6J-30" style="edgeStyle=orthogonalEdgeStyle;rounded=0;orthogonalLoop=1;jettySize=auto;html=1;exitX=0.5;exitY=1;exitDx=0;exitDy=0;" edge="1" parent="1" source="cdzJo2VHzPH039wVBR6J-27" target="cdzJo2VHzPH039wVBR6J-29">
          <mxGeometry relative="1" as="geometry" />
        </mxCell>
        <mxCell id="cdzJo2VHzPH039wVBR6J-27" value="Delete BookingId and MainGuestsName" style="rounded=0;whiteSpace=wrap;html=1;" vertex="1" parent="1">
          <mxGeometry x="343" y="1450" width="120" height="60" as="geometry" />
        </mxCell>
        <mxCell id="cdzJo2VHzPH039wVBR6J-28" style="edgeStyle=orthogonalEdgeStyle;rounded=0;orthogonalLoop=1;jettySize=auto;html=1;exitX=0.5;exitY=1;exitDx=0;exitDy=0;entryX=0.558;entryY=0.033;entryDx=0;entryDy=0;entryPerimeter=0;" edge="1" parent="1" source="cdzJo2VHzPH039wVBR6J-24" target="cdzJo2VHzPH039wVBR6J-27">
          <mxGeometry relative="1" as="geometry" />
        </mxCell>
        <mxCell id="cdzJo2VHzPH039wVBR6J-29" value="END" style="ellipse;whiteSpace=wrap;html=1;" vertex="1" parent="1">
          <mxGeometry x="343" y="1580" width="120" height="80" as="geometry" />
        </mxCell>
      </root>
    </mxGraphModel>
  </diagram>
</mxfile>
